<svg width="180" height="180" viewBox="0 0 180 180" fill="none" xmlns="http://www.w3.org/2000/svg">
<rect width="180" height="180" rx="46" fill="url(#paint0_linear_50_2)"/>
<path d="M75.084 88.6836C79.2832 90.0182 82.5221 92.0853 84.8008 94.8848C87.0794 97.6842 88.2188 101.086 88.2188 105.09C88.2188 111.568 85.8913 116.597 81.2363 120.178C76.6139 123.726 70.1035 125.5 61.7051 125.5H34.6055L34.6055 54.6016H59.7031C68.0365 54.6016 74.4655 56.2454 78.9902 59.5332C83.515 62.7884 85.7773 67.3783 85.7773 73.3027C85.7773 80.5618 82.2129 85.4935 75.084 88.0977V88.6836ZM58.9219 83.8008C66.7669 83.8008 70.6895 80.627 70.6895 74.2793C70.6895 68.4199 66.7669 65.4902 58.9219 65.4902H48.9121L48.9121 83.8008H58.9219ZM60.9238 114.611C64.6999 114.611 67.6296 113.7 69.7129 111.877C71.8288 110.021 72.8867 107.434 72.8867 104.113C72.8867 100.923 71.7799 98.5143 69.5664 96.8867C67.3854 95.2266 64.1628 94.3965 59.8984 94.3965H48.9121V114.611H60.9238ZM113.619 54.6016C125.826 54.6016 135.006 57.5475 141.158 63.4395C147.343 69.3314 150.436 78.0879 150.436 89.709C150.436 101.428 147.311 110.331 141.061 116.418C134.843 122.473 125.696 125.5 113.619 125.5H89.8398V54.6016H113.619ZM114.645 114.123C121.253 114.123 126.249 112.089 129.635 108.02C133.02 103.951 134.713 97.9121 134.713 89.9043C134.713 82.0267 133.036 76.0859 129.684 72.082C126.331 68.0781 121.318 66.0762 114.645 66.0762H104.928L104.928 114.123H114.645Z" fill="black" style="mix-blend-mode:overlay"/>
<defs>
<linearGradient id="paint0_linear_50_2" x1="-9.67615e-06" y1="143" x2="180" y2="37" gradientUnits="userSpaceOnUse">
<stop stop-color="#F7D579"/>
<stop offset="0.5" stop-color="#E892F0"/>
<stop offset="1" stop-color="#779FF5"/>
</linearGradient>
</defs>
</svg>
