<svg width="180" height="180" viewBox="0 0 180 180" fill="none" xmlns="http://www.w3.org/2000/svg">
<rect width="180" height="180" rx="46" fill="black"/>
<path d="M93.7538 42.0998C93.8233 41.9146 94.19 41.5478 94.2581 41.3663C93.8273 41.3663 93.8273 41.3663 92.776 41.8476L92.2409 42.0998C89.4503 43.4145 86.7506 44.9078 84.273 46.7535L83.8514 47.0739C83.3932 47.4216 82.5902 48.1404 82.1552 48.518C81.1808 49.3369 80.3686 50.3359 79.5894 51.3367L79.2212 51.8188C77.7742 53.678 76.7468 55.6302 75.9299 57.8339C74.209 62.7276 75.0667 67.2 77.1893 71.8059C78.1411 73.8586 79.2104 75.9907 79.4474 78.2708C79.5874 80.5945 79.3861 83.0158 77.7864 84.8416C76.8197 85.7438 75.9234 86.2462 74.5966 86.3316C72.6103 86.3562 71.1839 86.0478 69.6806 84.669C67.3451 82.1138 67.0091 79.1067 66.9401 75.7871L66.9349 75.4744H66.5682L66.2329 75.8719L65.8347 76.3913C63.2653 79.2526 61.088 82.4862 59.4022 85.9452L59.2331 86.2936C57.4909 89.7883 56.1849 93.346 55.5426 97.2045C55.4683 97.6884 55.3928 98.166 55.2855 98.6436C54.8328 100.517 54.7929 102.41 54.7866 104.331L54.7862 104.712C54.7832 106.847 54.8655 108.928 55.2983 111.026L55.3822 111.416C55.8856 113.815 56.6466 116.141 57.5075 118.434L57.7661 119.118L57.9208 119.55L58.0412 119.886C58.1848 120.292 58.3461 120.636 58.5641 121.01L58.8663 121.502C60.3357 124.085 61.9832 126.607 64.1549 128.66L64.551 129.02C69.3676 133.561 74.8743 136.08 81.2916 137.474L81.8572 137.593C84.4179 138.136 86.9056 138.425 89.5197 138.423C90.0096 138.42 90.4995 138.418 90.9894 138.42C92.8258 138.429 94.6113 138.377 96.4284 138.101L97.0087 138.006C102.141 137.243 107.122 135.469 111.564 132.791C116.424 129.776 121.417 124.803 122.83 119.038L122.849 118.951C122.944 118.495 123.036 118.054 123.189 117.612C124.325 114.616 124.361 110.599 123.7 107.485C123.59 107.01 123.59 107.01 123.531 106.499C123.319 104.87 122.793 103.376 122.131 101.881C120.1 97.5586 117.003 93.828 112.412 92.1617C112.487 92.7342 112.563 93.298 112.69 93.8615C112.797 94.3328 112.887 94.8016 112.963 95.2791C113.157 96.9346 112.89 98.3288 111.862 99.6801C111.283 100.055 110.872 100.219 110.186 100.29L109.616 100.276C109.264 100.271 108.912 100.258 108.561 100.23C107.579 99.7391 106.75 99.1173 106.178 98.1673C105.521 96.7175 105.554 94.7297 105.979 93.2104L106.178 92.7118C106.52 91.8332 106.928 91.0089 107.415 90.2018C108.437 88.5329 109.488 86.8669 110.194 85.0343L110.395 84.4598C111.415 81.6188 111.51 78.3553 110.973 75.3956C109.698 69.6646 105.952 65.2248 101.217 61.9664C99.5993 60.855 97.9113 59.7863 96.478 58.4389L96.0919 58.0536C94.4909 56.4735 93.2276 54.8585 92.3957 52.7478C91.5124 49.6686 91.7841 46.148 93.1807 43.2917C93.5246 42.6499 93.5246 42.6499 93.7538 42.0998Z" fill="#D33D3E"/>
<path d="M89.8571 74.1907L89.6737 73.824L89.3499 74.1363C84.9997 78.6081 84.681 84.5368 84.6423 90.4081C84.6336 92.0929 84.639 93.7801 84.5391 95.4624C84.2342 98.4171 83.4256 101.461 81.0664 103.439L80.5048 103.898V104.265H80.1381C79.7731 104.451 79.4059 104.634 79.0378 104.815C77.3722 105.534 75.7809 105.607 74.0773 104.962L73.7199 104.815C73.413 104.696 73.1066 104.575 72.803 104.448V104.081L72.4363 103.898C71.7552 103.06 71.3693 102.312 71.0574 101.28L70.9692 100.964H70.7859C69.2515 103.178 67.3061 106.994 67.3017 109.766C66.6188 113.461 66.7227 117.244 67.5682 120.899L67.6685 121.319C68.5129 124.881 74.7852 132.78 74.7852 132.78C75.789 133.751 76.7367 134.581 77.9993 135.207C78.299 135.352 78.7126 135.644 79.0065 135.8C80.5092 136.612 82.3019 137.678 83.989 138.006C86.0548 138.36 88.0671 138.419 90.1594 138.4C90.5052 138.397 92.4244 138.189 92.7911 138.098C93.8914 137.914 95.6174 137.594 97.0125 137.121C97.1359 137.079 98.0809 136.763 98.2007 136.722C100.742 135.863 102.771 134.344 104.894 132.688C105.954 131.959 106.969 131.079 107.766 130.068L108.011 129.754C110.029 127.324 112.034 124.471 112.684 121.319L112.779 120.768C113.418 117.512 113.455 113.892 112.723 110.654L112.63 110.259C112.352 109.069 112.009 107.944 111.496 106.832H111.129C111.066 107.675 110.936 108.42 110.647 109.216C109.876 111.02 108.447 112.193 106.67 112.963C105.546 113.135 104.313 113.171 103.299 112.609L102.877 112.333C102.332 112.156 102.039 112.107 101.754 111.6L101.593 111.049C101.048 109.599 100.96 108.218 100.943 106.681C100.923 104.394 100.834 102.243 100.105 100.052L99.9657 99.6457C99.1156 97.0571 97.7407 94.7594 95.9866 92.6781C94.8172 91.3205 93.5826 89.9884 92.5855 88.4963L92.241 87.944C91.7944 87.2298 91.3649 86.5083 90.9575 85.771C89.2437 82.5059 88.4498 78.7085 89.4903 75.1076C89.616 74.8034 89.7395 74.4982 89.8571 74.1907Z" fill="#FA7630"/>
<path d="M89.6736 103.348C89.944 102.702 90.0847 102.564 89.857 101.881C88.7144 102.642 88.7144 102.642 86.6852 104.994L86.6852 104.994L86.3729 105.365C85.6799 106.131 85.1799 106.906 84.6952 107.819L84.4359 108.322L84.4014 108.388C83.7974 109.557 83.2004 110.711 82.8343 111.98L82.7053 112.516C81.8729 115.923 81.836 119.121 83.2512 122.369L83.4388 122.786C81.3719 122.281 77.8071 119.93 76.3903 118.236C76.1503 117.911 76.1503 117.911 75.9204 117.651C75.4277 118.928 75.3072 120.089 75.3129 121.453L75.3244 122.144C75.3277 122.969 75.3244 124.069 75.3702 124.619C75.3943 124.908 75.4619 125.903 75.737 126.82C75.9561 127.55 77.2241 130.652 78.444 132.533L78.671 132.871C79.1239 133.601 79.5956 134.207 80.2142 134.795L80.5163 135.072C81.6881 136.146 84.3979 137.592 85.0892 137.822C85.9467 138.108 85.9467 138.108 87.7593 138.178C91.9977 138.284 95.2353 137.839 98.4184 134.843C100.829 132.309 101.765 129.297 101.724 125.849C101.545 121.699 98.6634 118.49 95.8168 115.726C94.8521 114.789 93.9144 113.859 93.0754 112.806C92.7562 112.392 92.4392 111.983 92.0963 111.589C91.6446 111.088 91.3066 110.651 90.9802 110.052C90.7584 109.646 90.2046 108.607 90.0454 108.119C89.4869 106.476 89.2768 105.054 89.6736 103.348Z" fill="#F5BE27"/>
</svg>
